<mxfile host="app.diagrams.net" modified="2023-12-13T10:01:20.225Z" agent="Mozilla/5.0 (Windows NT 10.0; Win64; x64) AppleWebKit/537.36 (KHTML, like Gecko) Chrome/120.0.0.0 Safari/537.36 Edg/120.0.0.0" etag="zGYryYJE4N6RaNVqiJIC" version="22.1.8" type="github">
  <diagram name="第 1 页" id="ZdIcWxTw7k2fuiQBUdYd">
    <mxGraphModel dx="1037" dy="594" grid="1" gridSize="10" guides="1" tooltips="1" connect="1" arrows="1" fold="1" page="1" pageScale="1" pageWidth="1700" pageHeight="1100" math="0" shadow="0">
      <root>
        <mxCell id="0" />
        <mxCell id="1" parent="0" />
        <mxCell id="vSqfz7S4TpMi5f_HFzDN-1" value="console" style="shape=umlLifeline;perimeter=lifelinePerimeter;whiteSpace=wrap;html=1;container=1;dropTarget=0;collapsible=0;recursiveResize=0;outlineConnect=0;portConstraint=eastwest;newEdgeStyle={&quot;curved&quot;:0,&quot;rounded&quot;:0};" vertex="1" parent="1">
          <mxGeometry x="40" y="40" width="100" height="1450" as="geometry" />
        </mxCell>
        <mxCell id="vSqfz7S4TpMi5f_HFzDN-2" value="" style="html=1;points=[[0,0,0,0,5],[0,1,0,0,-5],[1,0,0,0,5],[1,1,0,0,-5]];perimeter=orthogonalPerimeter;outlineConnect=0;targetShapes=umlLifeline;portConstraint=eastwest;newEdgeStyle={&quot;curved&quot;:0,&quot;rounded&quot;:0};" vertex="1" parent="vSqfz7S4TpMi5f_HFzDN-1">
          <mxGeometry x="45" y="207" width="10" height="74" as="geometry" />
        </mxCell>
        <mxCell id="vSqfz7S4TpMi5f_HFzDN-3" value="" style="html=1;points=[[0,0,0,0,5],[0,1,0,0,-5],[1,0,0,0,5],[1,1,0,0,-5]];perimeter=orthogonalPerimeter;outlineConnect=0;targetShapes=umlLifeline;portConstraint=eastwest;newEdgeStyle={&quot;curved&quot;:0,&quot;rounded&quot;:0};" vertex="1" parent="vSqfz7S4TpMi5f_HFzDN-1">
          <mxGeometry x="46" y="591" width="10" height="80" as="geometry" />
        </mxCell>
        <mxCell id="vSqfz7S4TpMi5f_HFzDN-4" value="api-server" style="shape=umlLifeline;perimeter=lifelinePerimeter;whiteSpace=wrap;html=1;container=1;dropTarget=0;collapsible=0;recursiveResize=0;outlineConnect=0;portConstraint=eastwest;newEdgeStyle={&quot;curved&quot;:0,&quot;rounded&quot;:0};" vertex="1" parent="1">
          <mxGeometry x="200" y="40" width="100" height="1430" as="geometry" />
        </mxCell>
        <mxCell id="vSqfz7S4TpMi5f_HFzDN-5" value="" style="html=1;points=[[0,0,0,0,5],[0,1,0,0,-5],[1,0,0,0,5],[1,1,0,0,-5]];perimeter=orthogonalPerimeter;outlineConnect=0;targetShapes=umlLifeline;portConstraint=eastwest;newEdgeStyle={&quot;curved&quot;:0,&quot;rounded&quot;:0};" vertex="1" parent="vSqfz7S4TpMi5f_HFzDN-4">
          <mxGeometry x="45" y="207" width="10" height="74" as="geometry" />
        </mxCell>
        <mxCell id="vSqfz7S4TpMi5f_HFzDN-6" value="" style="html=1;points=[[0,0,0,0,5],[0,1,0,0,-5],[1,0,0,0,5],[1,1,0,0,-5]];perimeter=orthogonalPerimeter;outlineConnect=0;targetShapes=umlLifeline;portConstraint=eastwest;newEdgeStyle={&quot;curved&quot;:0,&quot;rounded&quot;:0};" vertex="1" parent="vSqfz7S4TpMi5f_HFzDN-4">
          <mxGeometry x="48" y="601" width="10" height="74" as="geometry" />
        </mxCell>
        <mxCell id="vSqfz7S4TpMi5f_HFzDN-7" value="etcd" style="shape=umlLifeline;perimeter=lifelinePerimeter;whiteSpace=wrap;html=1;container=1;dropTarget=0;collapsible=0;recursiveResize=0;outlineConnect=0;portConstraint=eastwest;newEdgeStyle={&quot;curved&quot;:0,&quot;rounded&quot;:0};" vertex="1" parent="1">
          <mxGeometry x="360" y="40" width="100" height="1930" as="geometry" />
        </mxCell>
        <mxCell id="vSqfz7S4TpMi5f_HFzDN-11" value="" style="html=1;points=[[0,0,0,0,5],[0,1,0,0,-5],[1,0,0,0,5],[1,1,0,0,-5]];perimeter=orthogonalPerimeter;outlineConnect=0;targetShapes=umlLifeline;portConstraint=eastwest;newEdgeStyle={&quot;curved&quot;:0,&quot;rounded&quot;:0};" vertex="1" parent="vSqfz7S4TpMi5f_HFzDN-7">
          <mxGeometry x="45" y="130" width="10" height="190" as="geometry" />
        </mxCell>
        <mxCell id="vSqfz7S4TpMi5f_HFzDN-12" value="access-agent" style="shape=umlLifeline;perimeter=lifelinePerimeter;whiteSpace=wrap;html=1;container=1;dropTarget=0;collapsible=0;recursiveResize=0;outlineConnect=0;portConstraint=eastwest;newEdgeStyle={&quot;curved&quot;:0,&quot;rounded&quot;:0};" vertex="1" parent="1">
          <mxGeometry x="520" y="40" width="100" height="1820" as="geometry" />
        </mxCell>
        <mxCell id="vSqfz7S4TpMi5f_HFzDN-13" value="" style="html=1;points=[[0,0,0,0,5],[0,1,0,0,-5],[1,0,0,0,5],[1,1,0,0,-5]];perimeter=orthogonalPerimeter;outlineConnect=0;targetShapes=umlLifeline;portConstraint=eastwest;newEdgeStyle={&quot;curved&quot;:0,&quot;rounded&quot;:0};" vertex="1" parent="vSqfz7S4TpMi5f_HFzDN-12">
          <mxGeometry x="45" y="270" width="10" height="91" as="geometry" />
        </mxCell>
        <mxCell id="vSqfz7S4TpMi5f_HFzDN-14" value="" style="html=1;points=[[0,0,0,0,5],[0,1,0,0,-5],[1,0,0,0,5],[1,1,0,0,-5]];perimeter=orthogonalPerimeter;outlineConnect=0;targetShapes=umlLifeline;portConstraint=eastwest;newEdgeStyle={&quot;curved&quot;:0,&quot;rounded&quot;:0};" vertex="1" parent="vSqfz7S4TpMi5f_HFzDN-12">
          <mxGeometry x="45" y="381" width="10" height="80" as="geometry" />
        </mxCell>
        <mxCell id="vSqfz7S4TpMi5f_HFzDN-15" value="" style="html=1;points=[[0,0,0,0,5],[0,1,0,0,-5],[1,0,0,0,5],[1,1,0,0,-5]];perimeter=orthogonalPerimeter;outlineConnect=0;targetShapes=umlLifeline;portConstraint=eastwest;newEdgeStyle={&quot;curved&quot;:0,&quot;rounded&quot;:0};" vertex="1" parent="vSqfz7S4TpMi5f_HFzDN-12">
          <mxGeometry x="45" y="665" width="10" height="96" as="geometry" />
        </mxCell>
        <mxCell id="vSqfz7S4TpMi5f_HFzDN-16" value="" style="html=1;points=[[0,0,0,0,5],[0,1,0,0,-5],[1,0,0,0,5],[1,1,0,0,-5]];perimeter=orthogonalPerimeter;outlineConnect=0;targetShapes=umlLifeline;portConstraint=eastwest;newEdgeStyle={&quot;curved&quot;:0,&quot;rounded&quot;:0};" vertex="1" parent="vSqfz7S4TpMi5f_HFzDN-12">
          <mxGeometry x="46" y="773" width="10" height="318" as="geometry" />
        </mxCell>
        <mxCell id="vSqfz7S4TpMi5f_HFzDN-17" value="" style="html=1;points=[[0,0,0,0,5],[0,1,0,0,-5],[1,0,0,0,5],[1,1,0,0,-5]];perimeter=orthogonalPerimeter;outlineConnect=0;targetShapes=umlLifeline;portConstraint=eastwest;newEdgeStyle={&quot;curved&quot;:0,&quot;rounded&quot;:0};" vertex="1" parent="vSqfz7S4TpMi5f_HFzDN-12">
          <mxGeometry x="47" y="1204" width="10" height="77" as="geometry" />
        </mxCell>
        <mxCell id="vSqfz7S4TpMi5f_HFzDN-18" value="" style="html=1;align=left;spacingLeft=2;endArrow=block;rounded=0;edgeStyle=orthogonalEdgeStyle;curved=0;rounded=0;" edge="1" parent="vSqfz7S4TpMi5f_HFzDN-12">
          <mxGeometry relative="1" as="geometry">
            <mxPoint x="58" y="1220" as="sourcePoint" />
            <Array as="points">
              <mxPoint x="88" y="1250" />
            </Array>
            <mxPoint x="63" y="1250.032258064516" as="targetPoint" />
          </mxGeometry>
        </mxCell>
        <mxCell id="vSqfz7S4TpMi5f_HFzDN-19" value="" style="html=1;points=[[0,0,0,0,5],[0,1,0,0,-5],[1,0,0,0,5],[1,1,0,0,-5]];perimeter=orthogonalPerimeter;outlineConnect=0;targetShapes=umlLifeline;portConstraint=eastwest;newEdgeStyle={&quot;curved&quot;:0,&quot;rounded&quot;:0};" vertex="1" parent="vSqfz7S4TpMi5f_HFzDN-12">
          <mxGeometry x="46" y="1319" width="10" height="80" as="geometry" />
        </mxCell>
        <mxCell id="vSqfz7S4TpMi5f_HFzDN-20" value="" style="html=1;points=[[0,0,0,0,5],[0,1,0,0,-5],[1,0,0,0,5],[1,1,0,0,-5]];perimeter=orthogonalPerimeter;outlineConnect=0;targetShapes=umlLifeline;portConstraint=eastwest;newEdgeStyle={&quot;curved&quot;:0,&quot;rounded&quot;:0};" vertex="1" parent="vSqfz7S4TpMi5f_HFzDN-12">
          <mxGeometry x="43" y="1445" width="10" height="80" as="geometry" />
        </mxCell>
        <mxCell id="vSqfz7S4TpMi5f_HFzDN-21" value="" style="html=1;points=[[0,0,0,0,5],[0,1,0,0,-5],[1,0,0,0,5],[1,1,0,0,-5]];perimeter=orthogonalPerimeter;outlineConnect=0;targetShapes=umlLifeline;portConstraint=eastwest;newEdgeStyle={&quot;curved&quot;:0,&quot;rounded&quot;:0};" vertex="1" parent="vSqfz7S4TpMi5f_HFzDN-12">
          <mxGeometry x="45" y="50" width="10" height="160" as="geometry" />
        </mxCell>
        <mxCell id="vSqfz7S4TpMi5f_HFzDN-28" value="" style="endArrow=classic;html=1;rounded=0;edgeStyle=orthogonalEdgeStyle;" edge="1" parent="vSqfz7S4TpMi5f_HFzDN-12">
          <mxGeometry width="50" height="50" relative="1" as="geometry">
            <mxPoint x="55.05" y="70" as="sourcePoint" />
            <mxPoint x="55.05" y="110" as="targetPoint" />
            <Array as="points">
              <mxPoint x="100.05" y="70" />
              <mxPoint x="100.05" y="110" />
            </Array>
          </mxGeometry>
        </mxCell>
        <mxCell id="vSqfz7S4TpMi5f_HFzDN-22" value="securityGroupsManager" style="shape=umlLifeline;perimeter=lifelinePerimeter;whiteSpace=wrap;html=1;container=1;dropTarget=0;collapsible=0;recursiveResize=0;outlineConnect=0;portConstraint=eastwest;newEdgeStyle={&quot;curved&quot;:0,&quot;rounded&quot;:0};" vertex="1" parent="1">
          <mxGeometry x="683" y="40" width="100" height="1870" as="geometry" />
        </mxCell>
        <mxCell id="vSqfz7S4TpMi5f_HFzDN-23" value="" style="html=1;points=[[0,0,0,0,5],[0,1,0,0,-5],[1,0,0,0,5],[1,1,0,0,-5]];perimeter=orthogonalPerimeter;outlineConnect=0;targetShapes=umlLifeline;portConstraint=eastwest;newEdgeStyle={&quot;curved&quot;:0,&quot;rounded&quot;:0};" vertex="1" parent="vSqfz7S4TpMi5f_HFzDN-22">
          <mxGeometry x="45" y="281" width="10" height="199" as="geometry" />
        </mxCell>
        <mxCell id="vSqfz7S4TpMi5f_HFzDN-24" value="routeTableManager" style="shape=umlLifeline;perimeter=lifelinePerimeter;whiteSpace=wrap;html=1;container=1;dropTarget=0;collapsible=0;recursiveResize=0;outlineConnect=0;portConstraint=eastwest;newEdgeStyle={&quot;curved&quot;:0,&quot;rounded&quot;:0};" vertex="1" parent="1">
          <mxGeometry x="890" y="40" width="100" height="1890" as="geometry" />
        </mxCell>
        <mxCell id="vSqfz7S4TpMi5f_HFzDN-25" value="ovs" style="shape=umlLifeline;perimeter=lifelinePerimeter;whiteSpace=wrap;html=1;container=1;dropTarget=0;collapsible=0;recursiveResize=0;outlineConnect=0;portConstraint=eastwest;newEdgeStyle={&quot;curved&quot;:0,&quot;rounded&quot;:0};" vertex="1" parent="1">
          <mxGeometry x="1220" y="40" width="100" height="1780" as="geometry" />
        </mxCell>
        <mxCell id="vSqfz7S4TpMi5f_HFzDN-26" value="" style="endArrow=classic;html=1;rounded=0;edgeStyle=orthogonalEdgeStyle;" edge="1" parent="1" source="vSqfz7S4TpMi5f_HFzDN-21" target="vSqfz7S4TpMi5f_HFzDN-11">
          <mxGeometry width="50" height="50" relative="1" as="geometry">
            <mxPoint x="510" y="130" as="sourcePoint" />
            <mxPoint x="690" y="240" as="targetPoint" />
            <Array as="points">
              <mxPoint x="440" y="193" />
              <mxPoint x="440" y="193" />
            </Array>
          </mxGeometry>
        </mxCell>
        <mxCell id="vSqfz7S4TpMi5f_HFzDN-29" value="&lt;font style=&quot;&quot;&gt;&lt;font style=&quot;font-size: 12px;&quot;&gt;监听到&lt;br&gt;/tc/agents/access/networks/${vni}&lt;br&gt;/port/{port_id}/firewall/{security_groups_id}&lt;br&gt;更新， 获取security_groups_id&lt;/font&gt;&lt;br&gt;&lt;/font&gt;" style="text;html=1;strokeColor=none;fillColor=none;align=center;verticalAlign=middle;whiteSpace=wrap;rounded=0;" vertex="1" parent="1">
          <mxGeometry x="556" y="120" width="227" height="100" as="geometry" />
        </mxCell>
        <mxCell id="vSqfz7S4TpMi5f_HFzDN-30" value="" style="endArrow=classic;html=1;rounded=0;edgeStyle=orthogonalEdgeStyle;" edge="1" parent="1">
          <mxGeometry width="50" height="50" relative="1" as="geometry">
            <mxPoint x="900" y="210" as="sourcePoint" />
            <mxPoint x="950" y="160" as="targetPoint" />
          </mxGeometry>
        </mxCell>
        <mxCell id="vSqfz7S4TpMi5f_HFzDN-31" value="" style="endArrow=classic;html=1;rounded=0;edgeStyle=orthogonalEdgeStyle;" edge="1" parent="1" target="vSqfz7S4TpMi5f_HFzDN-23">
          <mxGeometry width="50" height="50" relative="1" as="geometry">
            <mxPoint x="579.9999999999999" y="340" as="sourcePoint" />
            <mxPoint x="720" y="341" as="targetPoint" />
            <Array as="points">
              <mxPoint x="580" y="341" />
            </Array>
          </mxGeometry>
        </mxCell>
        <mxCell id="vSqfz7S4TpMi5f_HFzDN-32" value="发布securityGroup_topic的msg" style="text;html=1;strokeColor=none;fillColor=none;align=center;verticalAlign=middle;whiteSpace=wrap;rounded=0;" vertex="1" parent="1">
          <mxGeometry x="580" y="350" width="140" height="30" as="geometry" />
        </mxCell>
        <mxCell id="vSqfz7S4TpMi5f_HFzDN-9" value="" style="html=1;align=left;spacingLeft=2;endArrow=block;rounded=0;edgeStyle=orthogonalEdgeStyle;curved=0;rounded=0;" edge="1" parent="1">
          <mxGeometry relative="1" as="geometry">
            <mxPoint x="740" y="350" as="sourcePoint" />
            <Array as="points">
              <mxPoint x="770" y="350" />
              <mxPoint x="770" y="380" />
            </Array>
            <mxPoint x="740" y="380" as="targetPoint" />
          </mxGeometry>
        </mxCell>
        <mxCell id="vSqfz7S4TpMi5f_HFzDN-33" value="解析msg，封装securityGroup对象" style="text;html=1;strokeColor=none;fillColor=none;align=center;verticalAlign=middle;whiteSpace=wrap;rounded=0;" vertex="1" parent="1">
          <mxGeometry x="760" y="350" width="140" height="30" as="geometry" />
        </mxCell>
        <mxCell id="vSqfz7S4TpMi5f_HFzDN-36" value="" style="endArrow=classic;html=1;rounded=0;edgeStyle=orthogonalEdgeStyle;" edge="1" parent="1">
          <mxGeometry width="50" height="50" relative="1" as="geometry">
            <mxPoint x="740" y="415" as="sourcePoint" />
            <mxPoint x="1269.5000000000005" y="415" as="targetPoint" />
            <Array as="points">
              <mxPoint x="1080" y="415" />
              <mxPoint x="1080" y="415" />
            </Array>
          </mxGeometry>
        </mxCell>
        <mxCell id="vSqfz7S4TpMi5f_HFzDN-37" value="封装grpc消息， 调用ovs接口" style="text;html=1;strokeColor=none;fillColor=none;align=center;verticalAlign=middle;whiteSpace=wrap;rounded=0;" vertex="1" parent="1">
          <mxGeometry x="766" y="413" width="169" height="30" as="geometry" />
        </mxCell>
        <mxCell id="vSqfz7S4TpMi5f_HFzDN-38" value="" style="html=1;align=left;spacingLeft=2;endArrow=block;rounded=0;edgeStyle=orthogonalEdgeStyle;curved=0;rounded=0;" edge="1" parent="1">
          <mxGeometry relative="1" as="geometry">
            <mxPoint x="740" y="480" as="sourcePoint" />
            <Array as="points">
              <mxPoint x="770" y="480" />
              <mxPoint x="770" y="510" />
            </Array>
            <mxPoint x="740" y="510" as="targetPoint" />
          </mxGeometry>
        </mxCell>
        <mxCell id="vSqfz7S4TpMi5f_HFzDN-39" value="msg消费完成" style="text;html=1;strokeColor=none;fillColor=none;align=center;verticalAlign=middle;whiteSpace=wrap;rounded=0;" vertex="1" parent="1">
          <mxGeometry x="750" y="480" width="140" height="30" as="geometry" />
        </mxCell>
        <mxCell id="vSqfz7S4TpMi5f_HFzDN-40" value="" style="endArrow=block;dashed=1;endFill=0;endSize=12;html=1;rounded=0;" edge="1" parent="1">
          <mxGeometry width="160" relative="1" as="geometry">
            <mxPoint x="1270" y="446" as="sourcePoint" />
            <mxPoint x="737" y="446" as="targetPoint" />
          </mxGeometry>
        </mxCell>
        <mxCell id="vSqfz7S4TpMi5f_HFzDN-41" value="返回ovs结果" style="text;html=1;strokeColor=none;fillColor=none;align=center;verticalAlign=middle;whiteSpace=wrap;rounded=0;" vertex="1" parent="1">
          <mxGeometry x="766" y="446" width="169" height="30" as="geometry" />
        </mxCell>
        <mxCell id="vSqfz7S4TpMi5f_HFzDN-42" value="根据security_groups_id查询安全组信息" style="text;html=1;strokeColor=none;fillColor=none;align=center;verticalAlign=middle;whiteSpace=wrap;rounded=0;" vertex="1" parent="1">
          <mxGeometry x="420" y="165" width="120" height="30" as="geometry" />
        </mxCell>
        <mxCell id="vSqfz7S4TpMi5f_HFzDN-43" value="" style="endArrow=classic;html=1;rounded=0;edgeStyle=orthogonalEdgeStyle;" edge="1" parent="1">
          <mxGeometry width="50" height="50" relative="1" as="geometry">
            <mxPoint x="418.0499999999999" y="320" as="sourcePoint" />
            <mxPoint x="566.05" y="321" as="targetPoint" />
            <Array as="points">
              <mxPoint x="418" y="321" />
            </Array>
          </mxGeometry>
        </mxCell>
        <mxCell id="vSqfz7S4TpMi5f_HFzDN-44" value="返回详情" style="text;html=1;strokeColor=none;fillColor=none;align=center;verticalAlign=middle;whiteSpace=wrap;rounded=0;" vertex="1" parent="1">
          <mxGeometry x="420" y="290" width="120" height="30" as="geometry" />
        </mxCell>
      </root>
    </mxGraphModel>
  </diagram>
</mxfile>
